<svg xmlns="http://www.w3.org/2000/svg" viewBox="0 0 132.67 96.64" fill="#D4A843">
  <path d="M132.62,48.05c-.26-3.78-1.6-6.75-4.01-8.92-2.42-2.17-5.58-3.7-9.48-4.6-3.91-.89-8.89-1.34-14.96-1.34h-62.45c-3.73,0-7.08,2.27-8.46,5.74l-18,45.24c-2.38,5.98,2.02,12.47,8.46,12.47h49.19c2.44,0,4.49-.65,6.17-1.95,1.68-1.3,2.89-3.15,3.62-5.54l8.61-27.95c.64-2.07,1.37-3.5,2.2-4.29.83-.79,2.08-1.19,3.74-1.19s2.66.4,2.98,1.19c.32.79.17,2.22-.47,4.29l-8.61,27.95c-.75,2.44-.67,4.29.23,5.57.91,1.28,2.55,1.92,4.95,1.92h15.95c2.44,0,4.49-.65,6.17-1.95,1.68-1.3,2.89-3.15,3.62-5.54l8.29-26.91c1.75-5.68,2.5-10.41,2.24-14.19Z"/>
  <path d="M39.2,78.4C17.58,78.4,0,60.81,0,39.2S17.58,0,39.2,0s39.2,17.58,39.2,39.2-17.58,39.2-39.2,39.2ZM39.2,8c-17.2,0-31.2,14-31.2,31.2s14,31.2,31.2,31.2,31.2-14,31.2-31.2-14-31.2-31.2-31.2Z"/>
</svg>
