<?xml version="1.0" encoding="UTF-8"?><svg id="Capa_1" xmlns="http://www.w3.org/2000/svg" viewBox="0 0 414.33 63.72"><defs></defs><path class="cls-1" d="M37.12,1.47c4.46-.89,9.72-1.34,15.79-1.34s11.06.45,14.96,1.34c3.91.89,7.07,2.43,9.48,4.6,2.42,2.17,3.75,5.14,4.01,8.92.26,3.78-.49,8.5-2.24,14.19l-8.29,26.91c-.74,2.4-1.95,4.24-3.62,5.54-1.68,1.3-3.74,1.95-6.17,1.95h-15.95c-2.4,0-4.04-.64-4.95-1.92-.91-1.28-.98-3.14-.23-5.57l8.61-27.95c.64-2.07.79-3.5.47-4.29-.32-.79-1.32-1.19-2.98-1.19s-2.91.4-3.74,1.19c-.83.79-1.57,2.22-2.2,4.29l-8.61,27.95c-.74,2.4-1.95,4.24-3.62,5.54-1.68,1.3-3.74,1.95-6.17,1.95H5.69c-2.4,0-4.04-.64-4.95-1.92-.91-1.28-.98-3.14-.23-5.57l8.29-26.91c1.74-5.64,3.91-10.36,6.52-14.16,2.61-3.8,5.78-6.78,9.51-8.95,3.73-2.17,7.83-3.7,12.28-4.6Z"></path><path class="cls-1" d="M202.66,6.77c.93-4.42,3.67-6.64,8.22-6.64h15.95c2.72,0,4.64.75,5.75,2.25,1.12,1.5,1.29,3.55.52,6.15l-9.56,32.03c-2.64,8.81-5.96,14.85-9.96,18.11-4,3.27-10.16,4.9-18.48,4.9s-14.48-1.63-18.48-4.9c-4-3.27-7.32-9.31-9.96-18.11l-9.5-32.03c-.77-2.64-.61-4.7.49-6.18,1.1-1.48,3-2.22,5.72-2.22h15.95c4.59,0,7.33,2.21,8.22,6.64l5.97,27.77c.2,1.26.74,1.89,1.61,1.89s1.41-.63,1.61-1.89l5.91-27.77Z"></path><path class="cls-1" d="M284.45,7.52c.74-2.4,1.96-4.26,3.67-5.56,1.71-1.3,3.76-1.96,6.17-1.96h16.02c2.41,0,4.06.64,4.97,1.93.91,1.28.99,3.15.23,5.59l-8.32,27.03c-1.74,5.67-3.92,10.41-6.52,14.22-2.6,3.81-5.79,6.81-9.55,8.99-3.77,2.18-7.89,3.72-12.37,4.62-4.47.9-9.76,1.34-15.85,1.34s-11.1-.45-15.03-1.34c-3.92-.9-7.09-2.44-9.49-4.62-2.41-2.18-3.75-5.17-4.03-8.96-.28-3.79.46-8.54,2.22-14.25l8.32-27.03c.74-2.4,1.96-4.26,3.67-5.56,1.71-1.3,3.76-1.96,6.17-1.96h16.02c2.4,0,4.06.64,4.97,1.93.91,1.28.99,3.15.23,5.59l-8.64,28.07c-.64,2.08-.79,3.52-.44,4.31.34.8,1.35,1.19,3.03,1.19s2.91-.4,3.73-1.19c.82-.79,1.54-2.23,2.18-4.31l8.64-28.07Z"></path><path class="cls-1" d="M385.37,0c4.53,0,8.46.46,11.81,1.38,3.35.92,6.35,2.44,9.01,4.56,2.66,2.12,4.68,5.13,6.06,9.02,1.38,3.89,2.08,8.63,2.08,14.22v27.03c0,2.41-.6,4.26-1.8,5.56-1.2,1.3-2.9,1.96-5.11,1.96h-13.58c-2.21,0-3.9-.64-5.08-1.93-1.18-1.28-1.77-3.15-1.77-5.59v-28.07c0-2.08-.27-3.52-.81-4.31-.54-.8-1.58-1.19-3.11-1.19s-2.57.4-3.11,1.19-.81,2.23-.81,4.31v28.07c0,2.41-.59,4.26-1.77,5.56s-2.89,1.96-5.13,1.96h-13.41c-2.21,0-3.91-.64-5.11-1.93-1.2-1.28-1.8-3.15-1.8-5.59v-28.07c0-2.08-.27-3.52-.81-4.31-.54-.8-1.58-1.19-3.11-1.19s-2.56.4-3.09,1.19c-.52.8-.79,2.23-.79,4.31v28.07c0,2.41-.6,4.26-1.8,5.56-1.2,1.3-2.9,1.96-5.11,1.96h-13.58c-2.21,0-3.91-.64-5.11-1.93-1.2-1.28-1.8-3.15-1.8-5.59v-27.03c0-5.58.69-10.32,2.08-14.22,1.38-3.89,3.4-6.9,6.06-9.02,2.66-2.12,5.66-3.64,9.01-4.56s7.29-1.38,11.81-1.38c9.35,0,15.98,1.94,19.87,5.81,3.85-3.87,10.46-5.81,19.81-5.81Z"></path><path class="cls-1" d="M147.13,8.31C141.23,2.86,132.37.13,120.56.13s-20.67,2.72-26.58,8.17c-5.91,5.45-8.86,13.3-8.86,23.55s2.95,18.11,8.86,23.55c5.9,5.45,14.76,8.17,26.58,8.17s20.67-2.72,26.58-8.17c5.91-5.45,8.86-13.3,8.86-23.55s-2.95-18.11-8.86-23.55ZM120.56,42.45c-5.85,0-10.59-4.74-10.59-10.59s4.74-10.59,10.59-10.59,10.59,4.74,10.59,10.59-4.74,10.59-10.59,10.59Z"></path></svg>